<mxfile host="app.diagrams.net" modified="2022-02-09T19:42:54.398Z" agent="5.0 (Windows NT 10.0; Win64; x64) AppleWebKit/537.36 (KHTML, like Gecko) Chrome/97.0.4692.99 Safari/537.36" etag="jpZ4v-8LMEfnbpP1Uu2M" version="16.5.5" type="github">
  <diagram name="Page-1" id="c4acf3e9-155e-7222-9cf6-157b1a14988f">
    <mxGraphModel dx="1117" dy="659" grid="0" gridSize="10" guides="1" tooltips="1" connect="1" arrows="1" fold="1" page="1" pageScale="1" pageWidth="850" pageHeight="1100" background="none" math="0" shadow="1">
      <root>
        <mxCell id="0" />
        <mxCell id="1" parent="0" />
        <mxCell id="5YIencaiAYip2NOxAa8F-21" style="edgeStyle=none;rounded=0;orthogonalLoop=1;jettySize=auto;html=1;entryX=0.004;entryY=0.878;entryDx=0;entryDy=0;entryPerimeter=0;fontSize=12;endArrow=open;endFill=0;startArrow=diamondThin;startFill=1;endSize=6;targetPerimeterSpacing=0;shadow=0;sketch=0;" edge="1" parent="1">
          <mxGeometry relative="1" as="geometry">
            <mxPoint x="512.9999999999998" y="82.86554141946135" as="sourcePoint" />
            <mxPoint x="683.6520000000003" y="82.58399999999995" as="targetPoint" />
          </mxGeometry>
        </mxCell>
        <mxCell id="5YIencaiAYip2NOxAa8F-12" value="&lt;b&gt;UNIVERSITY&lt;/b&gt;" style="swimlane;html=1;fontStyle=0;childLayout=stackLayout;horizontal=1;startSize=26;fillColor=none;horizontalStack=0;resizeParent=1;resizeLast=0;collapsible=1;marginBottom=0;swimlaneFillColor=none;rounded=0;shadow=0;comic=0;labelBackgroundColor=none;strokeWidth=1;fontFamily=Verdana;fontSize=10;align=center;" vertex="1" parent="1">
          <mxGeometry x="350" y="43" width="163" height="102" as="geometry" />
        </mxCell>
        <mxCell id="5YIencaiAYip2NOxAa8F-13" value="+ field: type" style="text;html=1;strokeColor=none;fillColor=none;align=left;verticalAlign=top;spacingLeft=4;spacingRight=4;whiteSpace=wrap;overflow=hidden;rotatable=0;points=[[0,0.5],[1,0.5]];portConstraint=eastwest;" vertex="1" parent="5YIencaiAYip2NOxAa8F-12">
          <mxGeometry y="26" width="163" height="28" as="geometry" />
        </mxCell>
        <mxCell id="5YIencaiAYip2NOxAa8F-14" value="" style="endArrow=none;html=1;rounded=0;exitX=-0.004;exitY=1.143;exitDx=0;exitDy=0;exitPerimeter=0;" edge="1" parent="5YIencaiAYip2NOxAa8F-12" source="5YIencaiAYip2NOxAa8F-13">
          <mxGeometry width="50" height="50" relative="1" as="geometry">
            <mxPoint x="-30" y="253" as="sourcePoint" />
            <mxPoint x="162" y="58" as="targetPoint" />
            <Array as="points">
              <mxPoint x="81" y="58" />
            </Array>
          </mxGeometry>
        </mxCell>
        <mxCell id="5YIencaiAYip2NOxAa8F-15" value="&lt;p style=&quot;line-height: 0&quot;&gt;&amp;nbsp;&lt;/p&gt;&lt;p style=&quot;line-height: 0&quot;&gt;&amp;nbsp;+method(type):type&lt;/p&gt;" style="text;html=1;align=left;verticalAlign=middle;resizable=0;points=[];autosize=1;strokeColor=none;fillColor=none;" vertex="1" parent="5YIencaiAYip2NOxAa8F-12">
          <mxGeometry y="54" width="163" height="40" as="geometry" />
        </mxCell>
        <mxCell id="5YIencaiAYip2NOxAa8F-17" value="&lt;b&gt;DEPARTMENTS&lt;/b&gt;" style="swimlane;html=1;fontStyle=0;childLayout=stackLayout;horizontal=1;startSize=26;fillColor=none;horizontalStack=0;resizeParent=1;resizeLast=0;collapsible=1;marginBottom=0;swimlaneFillColor=none;rounded=0;shadow=0;comic=0;labelBackgroundColor=none;strokeWidth=1;fontFamily=Verdana;fontSize=10;align=center;" vertex="1" parent="1">
          <mxGeometry x="683" y="43" width="163" height="102" as="geometry" />
        </mxCell>
        <mxCell id="5YIencaiAYip2NOxAa8F-18" value="+ field: type" style="text;html=1;strokeColor=none;fillColor=none;align=left;verticalAlign=top;spacingLeft=4;spacingRight=4;whiteSpace=wrap;overflow=hidden;rotatable=0;points=[[0,0.5],[1,0.5]];portConstraint=eastwest;" vertex="1" parent="5YIencaiAYip2NOxAa8F-17">
          <mxGeometry y="26" width="163" height="28" as="geometry" />
        </mxCell>
        <mxCell id="5YIencaiAYip2NOxAa8F-19" value="" style="endArrow=none;html=1;rounded=0;exitX=-0.004;exitY=1.143;exitDx=0;exitDy=0;exitPerimeter=0;" edge="1" parent="5YIencaiAYip2NOxAa8F-17" source="5YIencaiAYip2NOxAa8F-18">
          <mxGeometry width="50" height="50" relative="1" as="geometry">
            <mxPoint x="-30" y="253" as="sourcePoint" />
            <mxPoint x="162" y="58" as="targetPoint" />
            <Array as="points">
              <mxPoint x="81" y="58" />
            </Array>
          </mxGeometry>
        </mxCell>
        <mxCell id="5YIencaiAYip2NOxAa8F-20" value="&lt;p style=&quot;line-height: 0&quot;&gt;&amp;nbsp;&lt;/p&gt;&lt;p style=&quot;line-height: 0&quot;&gt;&amp;nbsp;+method(type):type&lt;/p&gt;" style="text;html=1;align=left;verticalAlign=middle;resizable=0;points=[];autosize=1;strokeColor=none;fillColor=none;" vertex="1" parent="5YIencaiAYip2NOxAa8F-17">
          <mxGeometry y="54" width="163" height="40" as="geometry" />
        </mxCell>
        <mxCell id="5YIencaiAYip2NOxAa8F-29" style="edgeStyle=none;rounded=0;orthogonalLoop=1;jettySize=auto;html=1;exitX=0.5;exitY=0;exitDx=0;exitDy=0;entryX=0;entryY=0.5;entryDx=0;entryDy=0;fontSize=12;startArrow=open;startFill=0;endArrow=diamondThin;endFill=1;" edge="1" parent="1" source="5YIencaiAYip2NOxAa8F-25" target="5YIencaiAYip2NOxAa8F-13">
          <mxGeometry relative="1" as="geometry">
            <Array as="points">
              <mxPoint x="84" y="83" />
            </Array>
          </mxGeometry>
        </mxCell>
        <mxCell id="5YIencaiAYip2NOxAa8F-25" value="&lt;b&gt;OFFÄ°CES&lt;/b&gt;" style="swimlane;html=1;fontStyle=0;childLayout=stackLayout;horizontal=1;startSize=26;fillColor=none;horizontalStack=0;resizeParent=1;resizeLast=0;collapsible=1;marginBottom=0;swimlaneFillColor=none;rounded=0;shadow=0;comic=0;labelBackgroundColor=none;strokeWidth=1;fontFamily=Verdana;fontSize=10;align=center;" vertex="1" parent="1">
          <mxGeometry x="2" y="233" width="163" height="102" as="geometry" />
        </mxCell>
        <mxCell id="5YIencaiAYip2NOxAa8F-26" value="+ field: type" style="text;html=1;strokeColor=none;fillColor=none;align=left;verticalAlign=top;spacingLeft=4;spacingRight=4;whiteSpace=wrap;overflow=hidden;rotatable=0;points=[[0,0.5],[1,0.5]];portConstraint=eastwest;" vertex="1" parent="5YIencaiAYip2NOxAa8F-25">
          <mxGeometry y="26" width="163" height="28" as="geometry" />
        </mxCell>
        <mxCell id="5YIencaiAYip2NOxAa8F-27" value="" style="endArrow=none;html=1;rounded=0;exitX=-0.004;exitY=1.143;exitDx=0;exitDy=0;exitPerimeter=0;" edge="1" parent="5YIencaiAYip2NOxAa8F-25" source="5YIencaiAYip2NOxAa8F-26">
          <mxGeometry width="50" height="50" relative="1" as="geometry">
            <mxPoint x="-30" y="253" as="sourcePoint" />
            <mxPoint x="162" y="58" as="targetPoint" />
            <Array as="points">
              <mxPoint x="81" y="58" />
            </Array>
          </mxGeometry>
        </mxCell>
        <mxCell id="5YIencaiAYip2NOxAa8F-28" value="&lt;p style=&quot;line-height: 0&quot;&gt;&amp;nbsp;&lt;/p&gt;&lt;p style=&quot;line-height: 0&quot;&gt;&amp;nbsp;+method(type):type&lt;/p&gt;" style="text;html=1;align=left;verticalAlign=middle;resizable=0;points=[];autosize=1;strokeColor=none;fillColor=none;" vertex="1" parent="5YIencaiAYip2NOxAa8F-25">
          <mxGeometry y="54" width="163" height="40" as="geometry" />
        </mxCell>
        <mxCell id="5YIencaiAYip2NOxAa8F-34" style="edgeStyle=none;rounded=0;sketch=0;orthogonalLoop=1;jettySize=auto;html=1;exitX=0.5;exitY=0;exitDx=0;exitDy=0;entryX=0.5;entryY=1;entryDx=0;entryDy=0;shadow=0;fontSize=12;startArrow=open;startFill=0;endArrow=diamondThin;endFill=1;endSize=6;targetPerimeterSpacing=0;sourcePerimeterSpacing=0;" edge="1" parent="1" source="5YIencaiAYip2NOxAa8F-30" target="5YIencaiAYip2NOxAa8F-12">
          <mxGeometry relative="1" as="geometry" />
        </mxCell>
        <mxCell id="5YIencaiAYip2NOxAa8F-30" value="&lt;b&gt;EMPLOYEE&lt;/b&gt;" style="swimlane;html=1;fontStyle=0;childLayout=stackLayout;horizontal=1;startSize=26;fillColor=none;horizontalStack=0;resizeParent=1;resizeLast=0;collapsible=1;marginBottom=0;swimlaneFillColor=none;rounded=0;shadow=0;comic=0;labelBackgroundColor=none;strokeWidth=1;fontFamily=Verdana;fontSize=10;align=center;" vertex="1" parent="1">
          <mxGeometry x="350" y="233" width="163" height="102" as="geometry" />
        </mxCell>
        <mxCell id="5YIencaiAYip2NOxAa8F-31" value="+ field: type" style="text;html=1;strokeColor=none;fillColor=none;align=left;verticalAlign=top;spacingLeft=4;spacingRight=4;whiteSpace=wrap;overflow=hidden;rotatable=0;points=[[0,0.5],[1,0.5]];portConstraint=eastwest;" vertex="1" parent="5YIencaiAYip2NOxAa8F-30">
          <mxGeometry y="26" width="163" height="28" as="geometry" />
        </mxCell>
        <mxCell id="5YIencaiAYip2NOxAa8F-32" value="" style="endArrow=none;html=1;rounded=0;exitX=-0.004;exitY=1.143;exitDx=0;exitDy=0;exitPerimeter=0;" edge="1" parent="5YIencaiAYip2NOxAa8F-30" source="5YIencaiAYip2NOxAa8F-31">
          <mxGeometry width="50" height="50" relative="1" as="geometry">
            <mxPoint x="-30" y="253" as="sourcePoint" />
            <mxPoint x="162" y="58" as="targetPoint" />
            <Array as="points">
              <mxPoint x="81" y="58" />
            </Array>
          </mxGeometry>
        </mxCell>
        <mxCell id="5YIencaiAYip2NOxAa8F-33" value="&lt;p style=&quot;line-height: 0&quot;&gt;&amp;nbsp;&lt;/p&gt;&lt;p style=&quot;line-height: 0&quot;&gt;&amp;nbsp;+method(type):type&lt;/p&gt;" style="text;html=1;align=left;verticalAlign=middle;resizable=0;points=[];autosize=1;strokeColor=none;fillColor=none;" vertex="1" parent="5YIencaiAYip2NOxAa8F-30">
          <mxGeometry y="54" width="163" height="40" as="geometry" />
        </mxCell>
        <mxCell id="5YIencaiAYip2NOxAa8F-35" value="1" style="text;html=1;align=center;verticalAlign=middle;resizable=0;points=[];autosize=1;strokeColor=none;fillColor=none;fontSize=12;" vertex="1" parent="1">
          <mxGeometry x="432" y="145" width="17" height="18" as="geometry" />
        </mxCell>
        <mxCell id="5YIencaiAYip2NOxAa8F-36" value="*" style="text;html=1;align=center;verticalAlign=middle;resizable=0;points=[];autosize=1;strokeColor=none;fillColor=none;fontSize=12;" vertex="1" parent="1">
          <mxGeometry x="434" y="215" width="15" height="18" as="geometry" />
        </mxCell>
        <mxCell id="5YIencaiAYip2NOxAa8F-46" style="edgeStyle=none;rounded=0;sketch=0;orthogonalLoop=1;jettySize=auto;html=1;exitX=0.5;exitY=0;exitDx=0;exitDy=0;shadow=0;fontSize=12;startArrow=open;startFill=0;endArrow=diamondThin;endFill=1;endSize=10;sourcePerimeterSpacing=6;targetPerimeterSpacing=9;startSize=10;" edge="1" parent="1" source="5YIencaiAYip2NOxAa8F-37">
          <mxGeometry relative="1" as="geometry">
            <mxPoint x="486" y="144" as="targetPoint" />
            <Array as="points">
              <mxPoint x="660" y="184" />
              <mxPoint x="486" y="184" />
            </Array>
          </mxGeometry>
        </mxCell>
        <mxCell id="5YIencaiAYip2NOxAa8F-37" value="&lt;b&gt;CLASSROOMS&lt;/b&gt;" style="swimlane;html=1;fontStyle=0;childLayout=stackLayout;horizontal=1;startSize=26;fillColor=none;horizontalStack=0;resizeParent=1;resizeLast=0;collapsible=1;marginBottom=0;swimlaneFillColor=none;rounded=0;shadow=0;comic=0;labelBackgroundColor=none;strokeWidth=1;fontFamily=Verdana;fontSize=10;align=center;glass=0;" vertex="1" parent="1">
          <mxGeometry x="579" y="233" width="163" height="103" as="geometry" />
        </mxCell>
        <mxCell id="5YIencaiAYip2NOxAa8F-38" value="+ field: type" style="text;html=1;strokeColor=none;fillColor=none;align=left;verticalAlign=top;spacingLeft=4;spacingRight=4;whiteSpace=wrap;overflow=hidden;rotatable=0;points=[[0,0.5],[1,0.5]];portConstraint=eastwest;" vertex="1" parent="5YIencaiAYip2NOxAa8F-37">
          <mxGeometry y="26" width="163" height="28" as="geometry" />
        </mxCell>
        <mxCell id="5YIencaiAYip2NOxAa8F-39" value="" style="endArrow=none;html=1;rounded=0;exitX=-0.004;exitY=1.143;exitDx=0;exitDy=0;exitPerimeter=0;" edge="1" parent="5YIencaiAYip2NOxAa8F-37" source="5YIencaiAYip2NOxAa8F-38">
          <mxGeometry width="50" height="50" relative="1" as="geometry">
            <mxPoint x="-30" y="253" as="sourcePoint" />
            <mxPoint x="162" y="58" as="targetPoint" />
            <Array as="points">
              <mxPoint x="81" y="58" />
            </Array>
          </mxGeometry>
        </mxCell>
        <mxCell id="5YIencaiAYip2NOxAa8F-40" value="&lt;p style=&quot;line-height: 0&quot;&gt;&amp;nbsp;&lt;/p&gt;&lt;p style=&quot;line-height: 0&quot;&gt;&amp;nbsp;+method(type):type&lt;/p&gt;" style="text;html=1;align=left;verticalAlign=middle;resizable=0;points=[];autosize=1;strokeColor=none;fillColor=none;" vertex="1" parent="5YIencaiAYip2NOxAa8F-37">
          <mxGeometry y="54" width="163" height="40" as="geometry" />
        </mxCell>
        <mxCell id="5YIencaiAYip2NOxAa8F-50" value="1" style="text;html=1;align=center;verticalAlign=middle;resizable=0;points=[];autosize=1;strokeColor=none;fillColor=none;fontSize=12;" vertex="1" parent="1">
          <mxGeometry x="490" y="145" width="17" height="18" as="geometry" />
        </mxCell>
        <mxCell id="5YIencaiAYip2NOxAa8F-51" value="*" style="text;html=1;align=center;verticalAlign=middle;resizable=0;points=[];autosize=1;strokeColor=none;fillColor=none;fontSize=12;" vertex="1" parent="1">
          <mxGeometry x="664" y="212" width="15" height="18" as="geometry" />
        </mxCell>
        <mxCell id="5YIencaiAYip2NOxAa8F-57" style="edgeStyle=none;rounded=0;sketch=0;orthogonalLoop=1;jettySize=auto;html=1;exitX=0.5;exitY=0;exitDx=0;exitDy=0;entryX=0.491;entryY=1.111;entryDx=0;entryDy=0;entryPerimeter=0;shadow=0;fontSize=12;startArrow=open;startFill=0;endArrow=diamondThin;endFill=1;startSize=10;endSize=10;sourcePerimeterSpacing=6;targetPerimeterSpacing=9;" edge="1" parent="1" source="5YIencaiAYip2NOxAa8F-53" target="5YIencaiAYip2NOxAa8F-20">
          <mxGeometry relative="1" as="geometry" />
        </mxCell>
        <mxCell id="5YIencaiAYip2NOxAa8F-53" value="&lt;b&gt;DEPART. OFFÄ°CES&lt;/b&gt;" style="swimlane;html=1;fontStyle=0;childLayout=stackLayout;horizontal=1;startSize=26;fillColor=none;horizontalStack=0;resizeParent=1;resizeLast=0;collapsible=1;marginBottom=0;swimlaneFillColor=none;rounded=0;shadow=0;comic=0;labelBackgroundColor=none;strokeWidth=1;fontFamily=Verdana;fontSize=10;align=center;" vertex="1" parent="1">
          <mxGeometry x="683" y="432" width="163" height="102" as="geometry" />
        </mxCell>
        <mxCell id="5YIencaiAYip2NOxAa8F-54" value="+ field: type" style="text;html=1;strokeColor=none;fillColor=none;align=left;verticalAlign=top;spacingLeft=4;spacingRight=4;whiteSpace=wrap;overflow=hidden;rotatable=0;points=[[0,0.5],[1,0.5]];portConstraint=eastwest;" vertex="1" parent="5YIencaiAYip2NOxAa8F-53">
          <mxGeometry y="26" width="163" height="28" as="geometry" />
        </mxCell>
        <mxCell id="5YIencaiAYip2NOxAa8F-55" value="" style="endArrow=none;html=1;rounded=0;exitX=-0.004;exitY=1.143;exitDx=0;exitDy=0;exitPerimeter=0;" edge="1" parent="5YIencaiAYip2NOxAa8F-53" source="5YIencaiAYip2NOxAa8F-54">
          <mxGeometry width="50" height="50" relative="1" as="geometry">
            <mxPoint x="-30" y="253" as="sourcePoint" />
            <mxPoint x="162" y="58" as="targetPoint" />
            <Array as="points">
              <mxPoint x="81" y="58" />
            </Array>
          </mxGeometry>
        </mxCell>
        <mxCell id="5YIencaiAYip2NOxAa8F-56" value="&lt;p style=&quot;line-height: 0&quot;&gt;&amp;nbsp;&lt;/p&gt;&lt;p style=&quot;line-height: 0&quot;&gt;&amp;nbsp;+method(type):type&lt;/p&gt;" style="text;html=1;align=left;verticalAlign=middle;resizable=0;points=[];autosize=1;strokeColor=none;fillColor=none;" vertex="1" parent="5YIencaiAYip2NOxAa8F-53">
          <mxGeometry y="54" width="163" height="40" as="geometry" />
        </mxCell>
        <mxCell id="5YIencaiAYip2NOxAa8F-58" value="1" style="text;html=1;align=center;verticalAlign=middle;resizable=0;points=[];autosize=1;strokeColor=none;fillColor=none;fontSize=12;" vertex="1" parent="1">
          <mxGeometry x="767" y="150" width="17" height="18" as="geometry" />
        </mxCell>
        <mxCell id="5YIencaiAYip2NOxAa8F-59" value="*" style="text;html=1;align=center;verticalAlign=middle;resizable=0;points=[];autosize=1;strokeColor=none;fillColor=none;fontSize=12;" vertex="1" parent="1">
          <mxGeometry x="768" y="406" width="15" height="18" as="geometry" />
        </mxCell>
        <mxCell id="5YIencaiAYip2NOxAa8F-68" style="rounded=0;sketch=0;orthogonalLoop=1;jettySize=auto;html=1;exitX=0.5;exitY=0;exitDx=0;exitDy=0;shadow=0;fontSize=12;startArrow=blockThin;startFill=1;endArrow=block;endFill=0;startSize=10;endSize=10;sourcePerimeterSpacing=6;targetPerimeterSpacing=9;elbow=vertical;edgeStyle=orthogonalEdgeStyle;" edge="1" parent="1" source="5YIencaiAYip2NOxAa8F-60">
          <mxGeometry relative="1" as="geometry">
            <mxPoint x="438" y="334" as="targetPoint" />
          </mxGeometry>
        </mxCell>
        <mxCell id="5YIencaiAYip2NOxAa8F-60" value="&lt;b&gt;STAFF&lt;/b&gt;" style="swimlane;html=1;fontStyle=0;childLayout=stackLayout;horizontal=1;startSize=26;fillColor=none;horizontalStack=0;resizeParent=1;resizeLast=0;collapsible=1;marginBottom=0;swimlaneFillColor=none;rounded=0;shadow=0;comic=0;labelBackgroundColor=none;strokeWidth=1;fontFamily=Verdana;fontSize=10;align=center;" vertex="1" parent="1">
          <mxGeometry x="196" y="432" width="163" height="102" as="geometry" />
        </mxCell>
        <mxCell id="5YIencaiAYip2NOxAa8F-61" value="+ field: type" style="text;html=1;strokeColor=none;fillColor=none;align=left;verticalAlign=top;spacingLeft=4;spacingRight=4;whiteSpace=wrap;overflow=hidden;rotatable=0;points=[[0,0.5],[1,0.5]];portConstraint=eastwest;" vertex="1" parent="5YIencaiAYip2NOxAa8F-60">
          <mxGeometry y="26" width="163" height="28" as="geometry" />
        </mxCell>
        <mxCell id="5YIencaiAYip2NOxAa8F-62" value="" style="endArrow=none;html=1;rounded=0;exitX=-0.004;exitY=1.143;exitDx=0;exitDy=0;exitPerimeter=0;" edge="1" parent="5YIencaiAYip2NOxAa8F-60" source="5YIencaiAYip2NOxAa8F-61">
          <mxGeometry width="50" height="50" relative="1" as="geometry">
            <mxPoint x="-30" y="253" as="sourcePoint" />
            <mxPoint x="162" y="58" as="targetPoint" />
            <Array as="points">
              <mxPoint x="81" y="58" />
            </Array>
          </mxGeometry>
        </mxCell>
        <mxCell id="5YIencaiAYip2NOxAa8F-63" value="&lt;p style=&quot;line-height: 0&quot;&gt;&amp;nbsp;&lt;/p&gt;&lt;p style=&quot;line-height: 0&quot;&gt;&amp;nbsp;+method(type):type&lt;/p&gt;" style="text;html=1;align=left;verticalAlign=middle;resizable=0;points=[];autosize=1;strokeColor=none;fillColor=none;" vertex="1" parent="5YIencaiAYip2NOxAa8F-60">
          <mxGeometry y="54" width="163" height="40" as="geometry" />
        </mxCell>
        <mxCell id="5YIencaiAYip2NOxAa8F-76" style="edgeStyle=orthogonalEdgeStyle;rounded=0;sketch=0;orthogonalLoop=1;jettySize=auto;html=1;exitX=0.5;exitY=0;exitDx=0;exitDy=0;shadow=0;fontSize=12;startArrow=blockThin;startFill=1;endArrow=block;endFill=0;sourcePerimeterSpacing=7;targetPerimeterSpacing=9;elbow=vertical;strokeWidth=2;endSize=10;" edge="1" parent="1" source="5YIencaiAYip2NOxAa8F-64">
          <mxGeometry relative="1" as="geometry">
            <mxPoint x="438.1428571428571" y="334" as="targetPoint" />
          </mxGeometry>
        </mxCell>
        <mxCell id="5YIencaiAYip2NOxAa8F-64" value="&lt;b&gt;PROFFESORS&lt;/b&gt;" style="swimlane;html=1;fontStyle=0;childLayout=stackLayout;horizontal=1;startSize=26;fillColor=none;horizontalStack=0;resizeParent=1;resizeLast=0;collapsible=1;marginBottom=0;swimlaneFillColor=none;rounded=0;shadow=0;comic=0;labelBackgroundColor=none;strokeWidth=1;fontFamily=Verdana;fontSize=10;align=center;" vertex="1" parent="1">
          <mxGeometry x="449" y="432" width="163" height="102" as="geometry">
            <mxRectangle x="449" y="432" width="101" height="26" as="alternateBounds" />
          </mxGeometry>
        </mxCell>
        <mxCell id="5YIencaiAYip2NOxAa8F-65" value="+ field: type" style="text;html=1;strokeColor=none;fillColor=none;align=left;verticalAlign=top;spacingLeft=4;spacingRight=4;whiteSpace=wrap;overflow=hidden;rotatable=0;points=[[0,0.5],[1,0.5]];portConstraint=eastwest;" vertex="1" parent="5YIencaiAYip2NOxAa8F-64">
          <mxGeometry y="26" width="163" height="28" as="geometry" />
        </mxCell>
        <mxCell id="5YIencaiAYip2NOxAa8F-66" value="" style="endArrow=none;html=1;rounded=0;exitX=-0.004;exitY=1.143;exitDx=0;exitDy=0;exitPerimeter=0;" edge="1" parent="5YIencaiAYip2NOxAa8F-64" source="5YIencaiAYip2NOxAa8F-65">
          <mxGeometry width="50" height="50" relative="1" as="geometry">
            <mxPoint x="-30" y="253" as="sourcePoint" />
            <mxPoint x="162" y="58" as="targetPoint" />
            <Array as="points">
              <mxPoint x="81" y="58" />
            </Array>
          </mxGeometry>
        </mxCell>
        <mxCell id="5YIencaiAYip2NOxAa8F-67" value="&lt;p style=&quot;line-height: 0&quot;&gt;&amp;nbsp;&lt;/p&gt;&lt;p style=&quot;line-height: 0&quot;&gt;&amp;nbsp;+method(type):type&lt;/p&gt;" style="text;html=1;align=left;verticalAlign=middle;resizable=0;points=[];autosize=1;strokeColor=none;fillColor=none;" vertex="1" parent="5YIencaiAYip2NOxAa8F-64">
          <mxGeometry y="54" width="163" height="40" as="geometry" />
        </mxCell>
        <mxCell id="5YIencaiAYip2NOxAa8F-77" style="rounded=0;sketch=0;orthogonalLoop=1;jettySize=auto;html=1;entryX=0;entryY=0.5;entryDx=0;entryDy=0;shadow=0;fontSize=12;startArrow=none;startFill=0;endArrow=none;endFill=0;endSize=10;sourcePerimeterSpacing=7;targetPerimeterSpacing=9;strokeWidth=1;elbow=vertical;" edge="1" parent="1" target="5YIencaiAYip2NOxAa8F-54">
          <mxGeometry relative="1" as="geometry">
            <mxPoint x="611" y="472" as="sourcePoint" />
          </mxGeometry>
        </mxCell>
        <mxCell id="5YIencaiAYip2NOxAa8F-78" style="edgeStyle=orthogonalEdgeStyle;rounded=0;sketch=0;orthogonalLoop=1;jettySize=auto;html=1;exitX=0;exitY=0.5;exitDx=0;exitDy=0;entryX=0.5;entryY=1;entryDx=0;entryDy=0;shadow=0;fontSize=12;startArrow=none;startFill=0;endArrow=none;endFill=0;endSize=10;sourcePerimeterSpacing=7;targetPerimeterSpacing=9;strokeWidth=1;elbow=vertical;" edge="1" parent="1" source="5YIencaiAYip2NOxAa8F-61" target="5YIencaiAYip2NOxAa8F-25">
          <mxGeometry relative="1" as="geometry" />
        </mxCell>
        <mxCell id="5YIencaiAYip2NOxAa8F-79" value="1" style="text;html=1;align=center;verticalAlign=middle;resizable=0;points=[];autosize=1;strokeColor=none;fillColor=none;fontSize=12;" vertex="1" parent="1">
          <mxGeometry x="181" y="453" width="17" height="18" as="geometry" />
        </mxCell>
        <mxCell id="5YIencaiAYip2NOxAa8F-80" value="1" style="text;html=1;align=center;verticalAlign=middle;resizable=0;points=[];autosize=1;strokeColor=none;fillColor=none;fontSize=12;" vertex="1" parent="1">
          <mxGeometry x="67" y="335" width="17" height="18" as="geometry" />
        </mxCell>
        <mxCell id="5YIencaiAYip2NOxAa8F-84" value="1" style="text;html=1;align=center;verticalAlign=middle;resizable=0;points=[];autosize=1;strokeColor=none;fillColor=none;fontSize=12;" vertex="1" parent="1">
          <mxGeometry x="334" y="59" width="17" height="18" as="geometry" />
        </mxCell>
        <mxCell id="5YIencaiAYip2NOxAa8F-85" value="*" style="text;html=1;align=center;verticalAlign=middle;resizable=0;points=[];autosize=1;strokeColor=none;fillColor=none;fontSize=12;" vertex="1" parent="1">
          <mxGeometry x="64" y="217" width="15" height="18" as="geometry" />
        </mxCell>
      </root>
    </mxGraphModel>
  </diagram>
</mxfile>
